<svg xmlns="http://www.w3.org/2000/svg" width="162.629" height="168.593" viewBox="0 0 162.629 168.593"><defs><style>.a{fill:#fff;}</style></defs><g transform="translate(-142.526 -2023.151)"><path class="a" d="M223.865,2191.722q-29.913,0-59.826-.011c-10.5-.02-18.008-5.564-20.6-15.315a29.269,29.269,0,0,1-.828-7.374c-.059-23.772.035-47.544-.085-71.316-.03-5.887,2.282-9.99,7.349-12.915,7.621-4.4,15.141-8.977,22.6-13.641a4.37,4.37,0,0,0,1.532-3.214c.119-9.488.057-18.979.072-28.468.016-9.818,6.309-16.236,16.123-16.276q22.866-.093,45.732.064a6.326,6.326,0,0,1,4.153,1.83c10.6,11.588,21.017,23.347,31.627,34.927,2.037,2.223,2.072,4.642,1.86,7.191-.175,2.111.631,3.214,2.417,4.276,7.478,4.449,14.784,9.188,22.283,13.6,4.794,2.819,6.9,6.79,6.879,12.283-.071,24.06-.023,48.119-.035,72.179,0,9.085-3.432,16.349-11.971,20.192a25.584,25.584,0,0,1-10.034,1.9C263.367,2191.809,243.616,2191.722,223.865,2191.722Zm-75.525-85.768c-.058,1.239-.129,2.061-.13,2.882q-.009,30.76,0,61.519c.011,9.73,6.036,15.73,15.8,15.734q59.664.022,119.327,0c10.327-.005,16.152-5.9,16.156-16.249q.011-30.328,0-60.657v-3.187c-1.141.667-1.943,1.119-2.728,1.6q-34.507,21.08-68.992,42.2c-2.485,1.527-4.541,2.1-7.316.386-17.395-10.774-34.893-21.382-52.35-32.057C161.618,2114.146,155.146,2110.142,148.34,2105.954Zm86.184-77.01c-1.122-.06-1.874-.135-2.626-.135-13.993-.007-27.986-.03-41.979.006-6.391.016-10.132,3.714-10.28,10.143-.091,3.927-.023,7.857-.023,11.786,0,21.752-.021,43.5.058,65.255,0,1.138.524,2.808,1.363,3.33q20.581,12.792,41.355,25.269a3.456,3.456,0,0,0,2.976.034q20.641-12.437,41.138-25.113a3.758,3.758,0,0,0,1.515-2.711q.134-25.44.048-50.882c0-2.385-1.191-3.678-3.746-3.639-4.408.068-8.817.034-13.226.015-10.366-.043-16.537-6.266-16.569-16.706C234.509,2040.146,234.523,2034.7,234.523,2028.944Zm39.224,86.2c7.9-4.833,15.446-9.471,23.013-14.081a6,6,0,0,0,.1-10.232c-2.86-1.9-5.812-3.674-8.742-5.471-4.684-2.873-9.384-5.719-14.376-8.76Zm-99.766-38.365c-2.391,1.454-4.335,2.644-6.286,3.822-5.475,3.306-10.978,6.567-16.422,9.925-4.341,2.677-4.37,8.094-.078,10.724,6.509,3.989,13.055,7.916,19.584,11.871.989.6,1.971,1.209,3.2,1.965Zm87.091-20.2L240.2,2033.369c0,5.429-.16,10.015.046,14.584.2,4.426,3.671,8.277,7.826,8.566C252.147,2056.8,256.258,2056.58,261.073,2056.58Z" transform="translate(0 0)"/><path class="a" d="M261.464,2083.041a30.185,30.185,0,1,1-30.3,29.966A30.151,30.151,0,0,1,261.464,2083.041Zm-.343,5.548a24.551,24.551,0,0,0-24.4,25.14c.331,13.807,11.44,24.312,25.42,24.038a24.6,24.6,0,0,0-1.022-49.178Z" transform="translate(-37.522 -25.352)"/><path class="a" d="M270.381,2130.955c3.875-3.146,7.515-6.078,11.127-9.045,1.554-1.277,3.232-2.088,4.755-.252,1.585,1.91.221,3.345-1.268,4.564-4.063,3.326-8.114,6.669-12.221,9.941-2.6,2.073-3.549,1.959-5.771-.55q-2.565-2.9-5.01-5.9c-1.114-1.369-1.244-2.831.209-4.051,1.482-1.243,2.855-.711,4.019.568C267.563,2127.7,268.856,2129.218,270.381,2130.955Z" transform="translate(-50.21 -41.245)"/></g></svg>