<svg xmlns="http://www.w3.org/2000/svg" width="114.243" height="48.789" viewBox="0 0 114.243 48.789"><defs><style>.a,.b{fill:#0096a1;}.b{fill-rule:evenodd;}</style></defs><path class="a" d="M-37.444,7782.945h-81.107A15.485,15.485,0,0,1-126.1,7781a14.266,14.266,0,0,1-5.232-4.994,20.245,20.245,0,0,1-2.152-6.9,47.729,47.729,0,0,1-.514-7.131,47.723,47.723,0,0,1,.514-7.13,20.266,20.266,0,0,1,2.152-6.906,14.271,14.271,0,0,1,5.232-4.994,15.486,15.486,0,0,1,7.55-1.944h81.107a15.486,15.486,0,0,1,7.549,1.944,14.268,14.268,0,0,1,5.233,4.994,20.289,20.289,0,0,1,2.151,6.905,47.645,47.645,0,0,1,.515,7.127,47.709,47.709,0,0,1-.515,7.133,20.274,20.274,0,0,1-2.151,6.9A14.266,14.266,0,0,1-29.895,7781,15.485,15.485,0,0,1-37.444,7782.945Zm-80.076-38.258a13.378,13.378,0,0,0-9,3.707,13.293,13.293,0,0,0-3.064,6.173,32.176,32.176,0,0,0-.729,7.406,32.164,32.164,0,0,0,.729,7.405,13.282,13.282,0,0,0,3.064,6.17,13.371,13.371,0,0,0,9,3.709h41.825v-34.571Zm56.377,7.3c-4.036,0-6.339.644-7.7,2.152-1.289,1.427-1.814,3.691-1.814,7.815,0,3.954.559,6.26,1.87,7.71,1.387,1.534,3.744,2.218,7.644,2.218,2.392,0,5.082-.136,6.9-1.145,1.715-.992,2.535-2.669,2.578-5.277h-5.975c-.094,2.135-1.641,2.309-3.5,2.309-2.912,0-3.43-1.236-3.43-4.717v-.215h12.907v-.883c0-4.159-.595-6.545-1.989-7.979a5.955,5.955,0,0,0-2.914-1.554A18.967,18.967,0,0,0-61.143,7751.984Zm17.9,4.547v15.335h6.209v-15.335H-32.5v-4.469H-47.787v4.469Zm-45.921,15.554h-.568c-1.084,0-2.138-.006-3.112-.082a6.925,6.925,0,0,1-4.355-1.515c-1.015-.954-1.52-2.437-1.544-4.537h6.213c.075,2.234,1.823,2.234,3.365,2.234a7.485,7.485,0,0,0,2.876-.305c.495-.245.679-.675.679-1.585,0-1-.29-1.577-.94-1.862a5.838,5.838,0,0,0-2.087-.262h-.528c-4.043,0-6.471-.434-7.873-1.406-1.5-1.04-1.706-2.7-1.706-4.346,0-2.885.86-4.638,2.706-5.518,1.64-.781,3.883-.842,6.873-.842a18.112,18.112,0,0,1,5.7.62,4.017,4.017,0,0,1,2.927,4.147v.8h-5.852c-.28-1.539-1.474-1.666-2.778-1.666-3.395,0-3.557.418-3.557,1.74,0,1.126.239,1.816,3.553,1.889,3.178.072,5.736.191,7.325,1s2.256,2.285,2.256,4.942c0,2.622-.924,4.389-2.826,5.4S-87.024,7772.085-89.166,7772.085Zm-23.226,0c-3.919,0-6.291-.691-7.691-2.241-1.323-1.463-1.887-3.782-1.887-7.752,0-4.14.53-6.416,1.831-7.856,1.375-1.524,3.692-2.174,7.748-2.174a18.935,18.935,0,0,1,4.6.439,6,6,0,0,1,2.933,1.568c1.407,1.446,2.007,3.845,2.007,8.022v.947h-12.907v.15c0,3.952.883,4.655,3.369,4.655a5.433,5.433,0,0,0,2.427-.37,2.017,2.017,0,0,0,1.011-1.941h6.1c-.031,2.668-.861,4.383-2.61,5.4C-107.294,7771.948-109.994,7772.085-112.393,7772.085Zm-.115-15.781c-1.359,0-2.135.22-2.593.734a4.271,4.271,0,0,0-.663,2.7h6.7v-.148c0-1.473-.272-2.336-.882-2.8A4.326,4.326,0,0,0-112.508,7756.3Zm54.756,3.362h-6.827c.078-2.677.57-3.567,3.324-3.567a4.427,4.427,0,0,1,2.595.507c.627.474.907,1.352.907,2.847v.212Z" transform="translate(134 -7734.156)"/><path class="b" d="M199.831,16.412a.462.462,0,0,0-.065-.241c-.026-.091-.1-.146-.2-.211a.715.715,0,0,0-.292-.074,2.082,2.082,0,0,0-.4-.025h-.355v1.268h.275a3.466,3.466,0,0,0,.476-.026,1.076,1.076,0,0,0,.329-.138.678.678,0,0,0,.177-.219.938.938,0,0,0,.052-.334m1.933,3.186h-1.434l-1.353-1.664h-.457V19.6h-1.1V15.087h1.709a5.028,5.028,0,0,1,.763.039,1.486,1.486,0,0,1,.571.184,1.188,1.188,0,0,1,.459.414,1.222,1.222,0,0,1,.139.624,1.156,1.156,0,0,1-.281.8,1.8,1.8,0,0,1-.721.5Zm.984-2.155a3.466,3.466,0,0,0-1.04-2.52,3.343,3.343,0,0,0-2.48-1.029,3.38,3.38,0,0,0-2.5,1.029,3.6,3.6,0,0,0,0,5.044,3.385,3.385,0,0,0,2.5,1.049,3.348,3.348,0,0,0,2.48-1.049,3.45,3.45,0,0,0,1.04-2.524m1,0a4.531,4.531,0,0,1-7.727,3.209,4.343,4.343,0,0,1-1.333-3.209,4.524,4.524,0,0,1,7.733-3.188,4.36,4.36,0,0,1,1.327,3.188" transform="translate(-89.506 -12.92)"/></svg>